<svg width="512" height="512" viewBox="0 0 512 512" xmlns="http://www.w3.org/2000/svg">
  <!-- Background circle -->
  <circle cx="256" cy="256" r="240" fill="#6366f1" stroke="#4338ca" stroke-width="8"/>
  
  <!-- Book/Diary icon -->
  <rect x="180" y="140" width="152" height="200" rx="8" fill="white" stroke="#4338ca" stroke-width="4"/>
  
  <!-- Book pages -->
  <rect x="190" y="150" width="132" height="180" fill="#f9fafb"/>
  
  <!-- Text lines -->
  <rect x="200" y="170" width="80" height="4" rx="2" fill="#6366f1"/>
  <rect x="200" y="185" width="100" height="4" rx="2" fill="#6366f1"/>
  <rect x="200" y="200" width="70" height="4" rx="2" fill="#6366f1"/>
  <rect x="200" y="215" width="90" height="4" rx="2" fill="#6366f1"/>
  <rect x="200" y="230" width="60" height="4" rx="2" fill="#6366f1"/>
  
  <!-- AI sparkle -->
  <circle cx="320" cy="180" r="12" fill="#fbbf24"/>
  <path d="M320 168 L320 192 M308 180 L332 180 M314 174 L326 186 M326 174 L314 186" stroke="#f59e0b" stroke-width="2" stroke-linecap="round"/>
  
  <!-- Additional sparkles -->
  <circle cx="280" cy="120" r="6" fill="#fbbf24"/>
  <circle cx="350" cy="250" r="8" fill="#fbbf24"/>
  <circle cx="200" cy="280" r="5" fill="#fbbf24"/>
</svg>
